<?xml version="1.0" encoding="UTF-8" standalone="no"?>
<!-- Created with Inkscape (http://www.inkscape.org/) -->

<svg
   width="197.09064mm"
   height="101.63361mm"
   viewBox="0 0 197.09064 101.63361"
   version="1.1"
   id="svg2664"
   xmlns="http://www.w3.org/2000/svg"
   xmlns:svg="http://www.w3.org/2000/svg">
  <defs
     id="defs2661">
    <clipPath
       clipPathUnits="userSpaceOnUse"
       id="clipPath6906">
      <ellipse
         style="font-variation-settings:normal;opacity:1;fill:#204285;fill-opacity:0.440415;stroke:none;stroke-width:6.8371;stroke-linecap:butt;stroke-linejoin:miter;stroke-miterlimit:4;stroke-dasharray:none;stroke-dashoffset:0;stroke-opacity:1;stop-color:#000000;stop-opacity:1"
         id="ellipse6908"
         cx="103.89614"
         cy="178.21672"
         rx="98.545319"
         ry="50.816814" />
    </clipPath>
  </defs>
  <g
     id="layer1"
     transform="translate(-4.2924882,-124.75408)">
    <g
       id="g7027">
      <ellipse
         style="font-variation-settings:normal;opacity:1;fill:#204285;fill-opacity:1;stroke:none;stroke-width:6.83709;stroke-linecap:butt;stroke-linejoin:miter;stroke-miterlimit:4;stroke-dasharray:none;stroke-dashoffset:0;stroke-opacity:1;stop-color:#000000;stop-opacity:1"
         id="path3545"
         cx="102.83781"
         cy="175.57089"
         rx="98.545319"
         ry="50.816814" />
      <g
         id="g6541"
         transform="matrix(0.93915837,0,0,0.93915837,19.074216,-0.891933)"
         style="fill:#ffffff">
        <path
           id="path3262"
           style="color:#000000;fill:#ffffff;stroke:none;stroke-width:0.539517"
           d="m 58.278596,140.99658 c -9.928443,3.8782 -17.012949,6.91766 -23.446886,9.66327 -6.433939,2.7456 -15.280633,5.27301 -15.473342,7.42731 -0.384494,4.29826 4.947592,1.95789 11.073542,-1.03999 2.082079,-1.01892 5.249507,-2.39818 8.758729,-4.04082 4.0095,9.24396 6.3274,19.36271 5.590872,26.60763 -0.535857,4.95114 -6.051661,12.53928 -10.377433,12.58072 -4.325772,0.0414 -5.77886,-2.00993 -4.722987,-4.21116 1.055875,-2.20124 3.371081,-4.35486 2.040155,-5.22939 -1.330926,-0.87452 -3.691338,1.09038 -5.244088,3.48675 -3.452655,5.32031 4.580975,9.88213 7.700694,9.73234 3.119719,-0.14979 5.766197,0.46107 11.364946,-7.83132 5.395762,-7.99174 1.756697,-23.97419 -3.533296,-36.4799 6.118613,-2.98741 12.687257,-6.67346 16.269094,-10.66544 z" />
        <g
           id="path3219"
           transform="matrix(0.53737128,0.04806964,-0.04806964,0.53737128,21.695671,119.27009)"
           style="fill:#ffffff">
          <path
             style="color:#000000;fill:#ffffff;fill-opacity:0;stroke-width:5.865"
             d="m 93.109926,40.39057 c 3.276931,-12.485387 21.688034,-4.42519 20.188754,6.477265 0.42813,16.78846 -5.27146,33.072555 -5.35215,49.841741 0.0616,3.584334 0.47883,7.171734 1.38002,10.645284"
             id="path3272" />
          <path
             id="path3274"
             style="color:#000000;fill:#ffffff"
             d="m 101.02381,31.031698 c -2.165525,-0.05468 -3.274557,0.469891 -4.217316,0.831473 -3.016828,1.157075 -5.522863,3.935048 -6.532934,7.783505 l 0.826822,-0.04703 c 3.42813,-2.544748 6.738501,-3.503258 11.809618,-2.910933 5.07112,0.592324 7.99827,6.030283 7.93285,16.180924 -0.0654,10.150642 -5.74525,26.401281 -5.75472,37.034905 -0.009,10.633628 0.43127,14.451408 1.40046,18.187048 l 6.52062,1.53821 c -0.83045,-3.20087 -2.11593,-7.83383 -2.12812,-12.936481 -0.0122,-5.102647 1.08449,-13.684564 1.82254,-18.86839 0.73805,-5.183827 4.42158,-9.159245 8.90187,-10.381504 4.48029,-1.222259 7.68555,0.39967 8.69492,4.181729 1.00936,3.782059 2.22635,9.257785 3.80096,14.216631 1.57461,4.958846 6.93738,9.756582 13.4367,9.052064 1.11659,-0.121037 1.26945,-2.626955 0.49583,-3.01338 -2.40148,-1.199544 -4.38489,-2.89854 -5.63175,-3.923547 -1.1058,-0.930077 -2.08273,-2.439492 -2.88458,-4.367175 -1.58862,-3.819103 -2.35217,-8.979551 -3.55069,-13.136666 -0.94496,-4.016454 -3.39474,-6.96965 -6.44921,-8.326107 -1.53121,-0.67999 -3.14907,-0.99092 -4.77542,-1.013891 -1.62635,-0.02297 -3.26089,0.242761 -4.82813,0.715201 -1.48434,0.447454 -2.94724,1.088276 -4.3217,1.897559 0.72632,-4.12749 1.26512,-8.007494 1.33945,-11.527462 0.25517,-12.083377 -4.67081,-18.654693 -10.67687,-20.281966 -2.25227,-0.610227 -3.93189,-0.851891 -5.2312,-0.8847 z" />
        </g>
        <g
           id="path3221"
           transform="matrix(0.53737128,0.04806964,-0.04806964,0.53737128,21.695671,119.27009)"
           style="fill:#ffffff">
          <path
             style="color:#000000;fill:#ffffff;fill-opacity:0;stroke-width:5.865"
             d="m 110.33223,76.312282 c 0.51761,-10.964855 19.69321,-18.450635 22.78891,-5.164391 2.22145,7.615477 3.03061,21.536394 13.7545,21.090656 0.4737,-0.09964 0.9474,-0.199275 1.4211,-0.298912"
             id="path3278" />
        </g>
        <g
           id="path3223"
           transform="matrix(0.53737128,0.04806964,-0.04806964,0.53737128,21.695671,119.27009)"
           style="fill:#ffffff">
          <path
             style="color:#000000;fill:#ffffff;fill-opacity:0;stroke-width:5.865"
             d="m 144.77685,56.937186 c 12.16828,-1.923294 12.2013,14.521495 9.71859,22.506199 -1.12209,4.021579 -5.40507,17.475758 -1.82838,6.73123 2.47212,-9.75427 3.2181,-23.184535 14.21439,-27.291734 11.23518,-4.565525 12.16049,8.908951 16.56259,15.250875 2.25154,2.488291 5.59402,3.626593 8.8513,3.981285"
             id="path3284" />
          <path
             style="color:#000000;fill:#ffffff"
             d="m 152.36898,63.422655 c 1.54083,2.782878 0.61318,7.996888 -0.0408,11.370314 -0.57098,2.945255 -1.3839,5.650706 -1.9746,8.24414 -0.70753,3.106389 -2.53479,5.848859 -1.47652,8.90625 1.4e-4,4.17e-4 3.09921,1.15049 3.09961,1.150391 2.19151,-1.217136 2.78133,-3.567259 3.36877,-5.787509 0.62779,-2.372739 1.25246,-4.612649 1.94955,-6.991788 0.91288,-3.115625 0.99208,-6.031298 2.03516,-8.892578 1.7038,-4.673683 4.0411,-8.096402 7.51356,-9.432688 3.47247,-1.336289 4.69738,-1.217213 5.62323,-0.832947 0.92584,0.384266 4.97005,0.666597 1.91097,9.048896 -1.22236,3.349419 -0.18979,8.876579 3.99801,10.782793 3.37031,1.53411 7.0478,1.433063 11.31478,1.729177 1.74669,0.121214 1.61216,-1.627813 1.10182,-1.765536 -2.65952,-0.717704 -8.7076,-2.264039 -10.33691,-4.358684 -1.62931,-2.094645 -1.12452,-6.542342 -0.55955,-9.680407 1.23574,-6.86374 -2.63597,-10.115926 -5.18108,-11.172255 -2.5341,-1.051761 -5.60831,-0.863403 -8.89648,0.416016 -3.61167,1.405294 -6.26224,3.694573 -8.29492,6.417969 -0.7563,-2.378572 -1.59152,-3.563813 -2.46241,-4.289436 -1.74691,-1.455521 -2.32554,-2.068314 -6.30959,-2.276765 -3.98406,-0.208451 2.07659,4.631769 3.61742,7.414647 z"
             id="path3286" />
        </g>
        <g
           id="path3235"
           transform="matrix(0.53811269,-0.03890128,0.03890128,0.53811269,26.995932,99.794396)"
           style="fill:#ffffff">
          <path
             style="color:#000000;fill:#ffffff;fill-opacity:0;stroke-width:5.865"
             d="m 191.04672,103.24052 c -12.99279,-4.778707 -16.22874,18.88018 -2.0219,17.02193 11.62988,5.89083 -0.29806,22.46929 -10.13372,20.90597"
             id="path3320" />
          <path
             style="color:#000000;fill:#ffffff"
             d="m 181.42773,101.84961 c -2.65274,2.10854 -4.08784,5.24272 -4.5,8.43164 -0.41216,3.18892 0.2928,6.72747 2.29493,9.25391 2.00213,2.52644 4.70654,2.88104 8.40113,4.07576 3.6946,1.19471 2.99973,6.88975 1.61584,9.31566 -1.38388,2.42591 -11.31476,8.31405 -15.84881,9.43915 l -0.67908,2.1804 c 8.67333,0.0392 19.37417,-5.38662 21.82342,-9.54808 2.44925,-4.16146 2.89467,-7.35311 2.3948,-10.59576 -0.49987,-3.24265 -2.60576,-6.52732 -6.72688,-7.19754 -4.12112,-0.67022 -8.43196,-2.55566 -8.06103,-5.87245 0.5775,-5.37977 3.93077,-5.36785 7.89311,-5.34011 3.29102,0.0178 5.03229,-3.2835 2.02343,-5.50391 -2.98331,-2.201548 -8.01925,-0.647501 -10.63086,1.36133 z"
             id="path3322" />
        </g>
        <g
           id="path3237"
           transform="matrix(0.53737128,0.04806964,-0.04806964,0.53737128,21.695671,119.27009)"
           style="fill:#ffffff">
          <path
             style="color:#000000;fill:#ffffff;fill-opacity:0;stroke-width:5.865"
             d="M 80.919562,92.437901 C 85.90925,81.603425 68.111406,81.20836 68.927033,91.532798 c -5.176791,7.302741 -9.2591,22.480692 1.280975,26.735582 10.455639,0.27033 17.577634,-10.83772 20.493454,-19.711742 4.246559,-9.033306 -6.856346,-19.693949 -12.696982,-16.992069 12.745529,-1.942201 23.64339,-12.11365 30.35135,-22.644166"
             id="path3326" />
          <path
             style="color:#000000;fill:#ffffff"
             d="m 99.079666,65.775032 c -6.098513,9.573777 -10.119282,11.230427 -15.238048,14.644158 -5.394874,0.394698 -9.191293,2.01359 -13.402614,4.89013 -4.211321,2.87654 -5.951781,4.935602 -7.400651,8.572852 -3.887171,10.124408 -3.682259,24.585338 8.095406,26.635378 5.281518,0.84413 12.628361,-1.39561 16.449705,-5.66036 3.751356,-4.18665 6.314245,-7.54075 7.90625,-14.05664 C 97.081719,94.284661 93.854696,87.809552 90.357422,83.746124 89.642096,82.914998 89.85709,83.230288 89.035461,82.553069 94.131715,79.167686 97.95681,74.299412 103.29771,65.914978 Z M 85.912109,87.572266 c 2.445909,2.830204 5.749982,7.279002 4.991287,12.005205 -0.758694,4.726199 -4.185096,9.009209 -7.628865,12.148349 -3.250212,2.96271 -8.441526,4.52676 -12.413204,3.54762 -3.971678,-0.97914 -5.101804,-5.31122 -4.743395,-10.5404 0.358409,-5.229171 1.303265,-11.513095 6.264317,-14.588779 4.961052,-3.075684 12.001998,-4.1525 13.52986,-2.571995 z"
             id="path3328" />
        </g>
        <path
           style="font-variation-settings:normal;opacity:1;fill:#ffffff;fill-opacity:1;stroke:none;stroke-width:5.86499;stroke-linecap:butt;stroke-linejoin:miter;stroke-miterlimit:4;stroke-dasharray:none;stroke-dashoffset:0;stroke-opacity:1;stop-color:#000000;stop-opacity:1"
           id="path6178"
           d="m 92.301604,105.41456 -6.365441,-3.64937 -5.305901,5.06796 1.503731,-7.181616 -6.459525,-3.480127 7.294797,-0.789107 1.313694,-7.218792 3.004702,6.693916 7.271434,-0.981331 -5.43779,4.926175 z"
           transform="matrix(0.78671755,0.18798496,-0.18798496,0.78671755,68.545871,54.792315)" />
      </g>
      <g
         id="g6747"
         transform="matrix(1.0427429,0,0,1.0427429,-21.066373,-6.6867951)">
        <text
           xml:space="preserve"
           style="font-weight:bold;font-size:10.5276px;font-family:sans-serif;-inkscape-font-specification:'sans-serif Bold';font-variation-settings:normal;opacity:1;fill:#ffffff;fill-opacity:1;stroke:none;stroke-width:19.447;stroke-linecap:butt;stroke-linejoin:miter;stroke-miterlimit:4;stroke-dasharray:none;stroke-dashoffset:0;stroke-opacity:1;stop-color:#000000;stop-opacity:1"
           x="87.610672"
           y="198.85632"
           id="text6687"><tspan
             id="tspan6685"
             style="fill:#ffffff;stroke-width:19.447"
             x="87.610672"
             y="198.85632">AMERICAN</tspan></text>
        <text
           xml:space="preserve"
           style="font-weight:bold;font-size:19.0676px;font-family:sans-serif;-inkscape-font-specification:'sans-serif Bold';font-variation-settings:normal;opacity:1;fill:#ffffff;fill-opacity:1;stroke:none;stroke-width:35.2224;stroke-linecap:butt;stroke-linejoin:miter;stroke-miterlimit:4;stroke-dasharray:none;stroke-dashoffset:0;stroke-opacity:1;stop-color:#000000;stop-opacity:1"
           x="86.36557"
           y="215.91753"
           id="text6691"><tspan
             id="tspan6689"
             style="fill:#ffffff;stroke-width:35.2225"
             x="86.36557"
             y="215.91753">GRILL</tspan></text>
      </g>
      <g
         id="g6830"
         clip-path="url(#clipPath6906)"
         transform="translate(-1.0583333,-2.6458334)">
        <path
           style="font-variation-settings:normal;opacity:1;fill:#aa0000;fill-opacity:1;stroke:none;stroke-width:5.86499;stroke-linecap:butt;stroke-linejoin:miter;stroke-miterlimit:4;stroke-dasharray:none;stroke-dashoffset:0;stroke-opacity:1;stop-color:#000000;stop-opacity:1"
           d="M 11.750573,207.42316 C 36.109666,188.01017 174.38471,155.67862 212.8727,149.86238 l -4.76835,62.49943 C 160.49875,189.62459 86.343545,177.33795 20.265481,210.99942 Z"
           id="path6812" />
        <path
           id="path6826"
           style="font-variation-settings:normal;opacity:1;fill:#ffffff;fill-opacity:1;stroke:none;stroke-width:3.73968;stroke-linecap:butt;stroke-linejoin:miter;stroke-miterlimit:4;stroke-dasharray:none;stroke-dashoffset:0;stroke-opacity:1;stop-color:#000000;stop-opacity:1"
           d="m 194.41992,167.9082 c -15.73163,0.21745 -31.40912,1.74335 -47.00482,3.77513 -24.55188,3.27344 -48.933326,8.02422 -72.890344,14.42252 -19.861059,5.3506 -39.490745,11.82523 -58.193926,20.38654 -1.011577,0.45354 -1.992943,0.93251 -3.008564,1.40995 1.184895,0.46745 2.369791,0.9349 3.554687,1.40235 21.24422,-10.04683 43.734963,-17.59102 66.912749,-21.6103 25.081828,-4.41292 50.829268,-4.6976 76.066008,-1.41524 16.50974,2.1261 32.81467,5.7296 48.76734,10.4689 1.2194,-9.29948 2.4388,-18.59896 3.6582,-27.89844 -5.91208,-0.8971 -11.8848,-0.97007 -17.86133,-0.94141 z" />
      </g>
    </g>
  </g>
</svg>
